<?xml version="1.0" standalone="no"?><!DOCTYPE svg PUBLIC "-//W3C//DTD SVG 1.1//EN" "http://www.w3.org/Graphics/SVG/1.1/DTD/svg11.dtd"><svg t="1732352005429" class="icon" viewBox="0 0 1024 1024" version="1.1" xmlns="http://www.w3.org/2000/svg" p-id="4295" xmlns:xlink="http://www.w3.org/1999/xlink" width="200" height="200"><path d="M931.429469 275.456749L641.842558 4.19942A16.179184 16.179184 0 0 0 630.783369 0.001024H302.694097C226.406174 0.001024 164.249436 58.164166 164.249436 129.639294V386.048638H42.700757c-23.551976 0-42.598357 17.919982-42.598357 39.93596v229.068571c0 21.913578 19.148781 39.83356 42.598357 39.83356h121.548679v111.411089c0 71.475129 62.054338 129.63827 138.444661 129.63827h494.898706c76.287924 0 138.444662-58.163142 138.444661-129.63827V285.696738a14.335986 14.335986 0 0 0-4.607995-10.239989zM155.852644 618.803605V462.131762c0-8.089592 6.963193-14.643185 15.667185-14.643185h50.278349c36.351964 0 65.945534 27.647972 65.945534 61.747138v2.047998c0 33.996766-29.59357 61.644738-65.945534 61.644738h-34.713565v46.079954c0 7.987192-6.963193 14.540785-15.564784 14.540785-8.703991 0-15.667184-6.553593-15.667185-14.643185z m160.15344 0V462.131762c0-8.089592 6.963193-14.643185 15.564785-14.643185h50.380749c36.351964 0 65.945534 27.647972 65.945534 61.747138v2.047998c0 33.996766-29.59357 61.644738-65.945534 61.644738h-34.815965v46.079954c0 7.987192-6.860793 14.540785-15.564784 14.540785-8.601591 0-15.564784-6.553593-15.564785-14.643185z m164.454236-142.131058c-8.601591 0-15.564784-6.553593-15.564785-14.643185 0-8.089592 6.963193-14.643185 15.564785-14.643185h100.659099c8.703991 0 15.667184 6.553593 15.667184 14.643185 0 8.089592-6.963193 14.643185-15.667184 14.643185h-34.713565v142.131058c0 8.089592-6.963193 14.643185-15.564785 14.643186-8.601591 0-15.564784-6.553593-15.564784-14.643186V476.774947h-34.815965z m424.345175 329.522871c0 55.295945-48.127952 100.3519-107.212692 100.351899H302.694097c-59.084741 0-107.212693-45.055955-107.212692-100.351899V694.886729h514.457085c23.551976 0 42.598357-17.919982 42.598358-39.93596V425.984598c0-22.015978-19.046381-39.93596-42.598358-39.93596H195.481405V129.639294c0-55.295945 48.127952-100.3519 107.212692-100.351899h312.422088v227.122973c0 24.268776 21.094379 44.031956 46.899153 44.031956h242.687757v505.855494zM221.798178 543.74448h-34.713565v-66.867133h34.815965c19.046381 0 34.611165 14.540785 34.611166 32.460768v1.945598c0 17.919982-15.564784 32.460768-34.713566 32.460767z m160.15344 0h-34.815965v-66.867133h34.815965c19.148781 0 34.713565 14.540785 34.713565 32.460768v1.945598c0 17.919982-15.564784 32.460768-34.713565 32.460767z" p-id="4296"></path></svg>