<?xml version="1.0" standalone="no"?><!DOCTYPE svg PUBLIC "-//W3C//DTD SVG 1.1//EN" "http://www.w3.org/Graphics/SVG/1.1/DTD/svg11.dtd"><svg t="1721220358741" class="icon" viewBox="0 0 1024 1024" version="1.1" xmlns="http://www.w3.org/2000/svg" p-id="17290" xmlns:xlink="http://www.w3.org/1999/xlink" width="200" height="200"><path d="M387.712 29.696c20.48 0 36.992 16.576 36.992 36.992V180.48a36.992 36.992 0 1 1-73.984 0V66.688c0-20.416 16.64-36.992 36.992-36.992zM633.152 29.696c20.48 0 36.992 16.576 36.992 36.992V180.48a36.992 36.992 0 0 1-73.984 0V66.688c0-20.416 16.64-36.992 36.992-36.992z" p-id="17291"></path><path d="M375.424 123.52c0-20.352 16.576-36.928 36.992-36.928h199.104a36.992 36.992 0 1 1 0 73.984H412.416a36.992 36.992 0 0 1-36.992-36.992zM76.8 134.976c0-26.752 21.568-48.384 48.32-48.384h161.28a36.992 36.992 0 1 1 0 73.984h-135.68v722.432h302.72a36.992 36.992 0 1 1 0 73.984h-328.32a48.32 48.32 0 0 1-48.384-48.32V134.848zM698.88 123.52c0-20.352 16.64-36.928 37.056-36.928h162.88c26.688 0 48.32 21.632 48.32 48.384v374.72a36.992 36.992 0 1 1-73.92 0V160.64h-137.28a36.992 36.992 0 0 1-36.992-36.992z" p-id="17292"></path><path d="M247.424 391.36c0-20.48 16.576-36.992 36.992-36.992H512a36.992 36.992 0 1 1 0 73.984H284.416a36.992 36.992 0 0 1-36.992-36.992zM247.424 569.216c0-20.48 16.576-36.992 36.992-36.992h142.208a36.992 36.992 0 1 1 0 73.92H284.416a36.992 36.992 0 0 1-36.992-36.928z" p-id="17293"></path><path d="M946.24 957.44h-62.784V609.28h62.784v348.16zM531.968 957.44l130.56-348.16h64.64l130.176 348.16h-66.432l-94.72-263.936h-2.688L598.4 957.44H531.968z m236.608-153.856l15.488 59.2H608l15.04-59.2h145.6z" p-id="17294"></path></svg>