<?xml version="1.0" standalone="no"?><!DOCTYPE svg PUBLIC "-//W3C//DTD SVG 1.1//EN" "http://www.w3.org/Graphics/SVG/1.1/DTD/svg11.dtd"><svg t="1721220456046" class="icon" viewBox="0 0 1024 1024" version="1.1" xmlns="http://www.w3.org/2000/svg" p-id="21092" xmlns:xlink="http://www.w3.org/1999/xlink" width="200" height="200"><path d="M1012.363636 982.109091l-200.145454-200.145455c167.563636-181.527273 165.236364-465.454545-13.963637-642.327272C619.054545-41.890909 323.490909-41.890909 139.636364 139.636364c-179.2 181.527273-179.2 477.090909 0 658.618181 90.763636 90.763636 209.454545 134.981818 330.472727 134.981819 109.381818 0 223.418182-41.890909 309.527273-121.018182l200.145454 200.145454c9.309091 9.309091 23.272727 9.309091 32.581818 0 9.309091-6.981818 9.309091-20.945455 0-30.254545zM768 765.672727c-162.909091 162.909091-430.545455 162.909091-593.454545 0s-162.909091-432.872727 0-593.454545c81.454545-81.454545 188.509091-121.018182 295.563636-121.018182S686.545455 90.763636 768 172.218182c160.581818 160.581818 160.581818 430.545455 0 593.454545z m-25.6-246.690909l-242.036364-65.163636 65.163637-246.690909c2.327273-11.636364-4.654545-25.6-16.290909-27.927273-11.636364-2.327273-25.6 4.654545-27.927273 16.290909L453.818182 442.181818 202.472727 374.690909c-11.636364-2.327273-25.6 4.654545-27.927272 16.290909-2.327273 11.636364 4.654545 25.6 16.290909 27.927273L442.181818 486.4l-65.163636 246.690909c-2.327273 11.636364 4.654545 25.6 16.290909 27.927273 11.636364 2.327273 25.6-4.654545 27.927273-16.290909l65.163636-246.690909 242.036364 65.163636c11.636364 2.327273 25.6-4.654545 27.927272-16.290909 4.654545-11.636364-2.327273-25.6-13.963636-27.927273z" fill="#ffffff" p-id="21093"></path></svg>