<?xml version="1.0" standalone="no"?><!DOCTYPE svg PUBLIC "-//W3C//DTD SVG 1.1//EN" "http://www.w3.org/Graphics/SVG/1.1/DTD/svg11.dtd"><svg t="1721220262941" class="icon" viewBox="0 0 1024 1024" version="1.1" xmlns="http://www.w3.org/2000/svg" p-id="13397" xmlns:xlink="http://www.w3.org/1999/xlink" width="200" height="200"><path d="M545.792 38.4c37.376 0 67.6864 30.1056 67.6864 67.6352v304.4864h304.4864c37.376 0 67.6352 30.1056 67.6352 67.6352v439.808c0 37.376-30.1056 67.6352-67.6352 67.6352h-439.808c-37.376 0-67.6352-30.1056-67.6352-67.6352v-304.4864H105.984c-37.376 0-67.6352-30.1056-67.6352-67.6352V105.984c0-37.376 30.1056-67.6352 67.6352-67.6352h439.808zM173.7728 714.9568a135.3216 135.3216 0 0 0 135.3216 135.3216v67.6864a202.9568 202.9568 0 0 1-203.008-203.008h67.6864z m478.7712-147.0464c-22.6816 0-34.816 10.5472-43.3664 35.84l-68.4032 196.096c-3.3792 10.1376-4.7616 16.3328-4.7616 21.6576 0 13.568 10.1376 22.528 24.832 22.528 14.336 0 22.272-7.3728 27.8528-26.112l15.104-46.08h95.2832l15.36 46.08c5.3248 18.5344 13.7216 26.112 28.2112 26.112 15.36 0 25.4976-9.216 25.4976-23.5008 0-5.5808-1.4336-12.1344-4.1984-20.6848l-68.4544-196.096c-8.5504-25.4976-20.48-35.84-42.9568-35.84z m180.6336 0.2048c-17.1008 0-26.8288 10.752-26.8288 29.0304v217.3952c0 18.3296 9.9328 29.0816 27.0336 29.0816 16.896 0 26.624-10.752 26.624-29.0816v-217.3952c0-18.3296-9.9328-29.0304-26.8288-29.0304z m-180.224 53.9136l34.4064 109.7728h-71.5776l34.6112-109.7728h2.56zM342.3232 156.8256H292.864v71.168H173.7216v170.0864h49.408v-26.1632H294.4v125.0304h52.3264V371.9168h72.704v21.8112h53.76V227.9936h-126.464v-36.352c0-10.5984 1.4848-19.8144 4.352-27.5456a11.1616 11.1616 0 0 0 1.4848-4.4032c0-0.9728-3.4304-1.8944-10.24-2.9184zM419.328 268.6976V332.8h-72.704v-64h72.704z m-196.3008 0H294.4v63.9488H223.1296v-64z m491.8784-162.7136a202.9568 202.9568 0 0 1 203.008 203.008h-67.6864a135.3216 135.3216 0 0 0-135.3216-135.3216V105.984z" p-id="13398" fill="#ffffff"></path></svg>