<?xml version="1.0" standalone="no"?><!DOCTYPE svg PUBLIC "-//W3C//DTD SVG 1.1//EN" "http://www.w3.org/Graphics/SVG/1.1/DTD/svg11.dtd"><svg t="1721220516946" class="icon" viewBox="0 0 1024 1024" version="1.1" xmlns="http://www.w3.org/2000/svg" p-id="22407" xmlns:xlink="http://www.w3.org/1999/xlink" width="200" height="200"><path d="M626 886.6c-183.5 0-332.7-149-332.7-332.2S442.5 222.2 626 222.2s332.7 149 332.7 332.2S809.4 886.6 626 886.6z m0-587.1c-140.8 0-255.3 114.4-255.3 255s114.5 255 255.3 255 255.3-114.4 255.3-255c0-140.7-114.5-255-255.3-255z" p-id="22408" fill="#ffffff"></path><path d="M705 676.5h-61.2l-24.3-63.2H508.1l-23 63.2h-59.7L534 398.3h59.5L705 676.5zM601.4 566.4L563 463.2l-37.6 103.2h76zM733.1 676.5V398.3h56.2v278.1h-56.2zM979.5 938.4c-9.9 0-19.8-3.8-27.4-11.3L841.8 816.8c-15.1-15.1-15.1-39.5 0-54.6s39.6-15.1 54.7 0l110.4 110.2c15.1 15.1 15.1 39.5 0 54.6-7.6 7.6-17.5 11.4-27.4 11.4zM626 148.6c85.8 0 165.3 26.6 230.9 71.9 1.5-3.8 2.5-7.9 2.5-12.2V123c0-19-15.6-34.6-34.7-34.6H42.9c-19 0-34.7 15.6-34.7 34.6v85.3c0 19 15.6 34.6 34.7 34.6h322.7c70.5-58.8 161.3-94.3 260.4-94.3zM265.8 366.5H42.9c-19 0-34.7 15.6-34.7 34.6v85.3c0 19 15.6 34.6 34.7 34.6h178.2c4.5-55.4 20.1-107.6 44.7-154.5zM229.8 644.7H42.9c-19 0-34.7 15.6-34.7 34.6v85.3c0 19 15.6 34.6 34.7 34.6h255.9c-3.4-5.8-6.6-11.7-9.6-17.7a404.04 404.04 0 0 1-59.4-136.8z" p-id="22409" fill="#ffffff"></path></svg>