<?xml version="1.0" standalone="no"?><!DOCTYPE svg PUBLIC "-//W3C//DTD SVG 1.1//EN" "http://www.w3.org/Graphics/SVG/1.1/DTD/svg11.dtd"><svg t="1721219990556" class="icon" viewBox="0 0 1024 1024" version="1.1" xmlns="http://www.w3.org/2000/svg" p-id="9996" xmlns:xlink="http://www.w3.org/1999/xlink" width="200" height="200"><path d="M177.2032 1024h97.024a30.0544 30.0544 0 1 0 0-60.1088H177.2032a117.2992 117.2992 0 0 1-117.1456-117.1456V177.2032a117.2992 117.2992 0 0 1 117.1456-117.1456h533.3504a117.248 117.248 0 0 1 117.76 117.1456v348.16a30.0544 30.0544 0 1 0 60.1088 0v-348.16A177.5616 177.5616 0 0 0 710.912 0H177.2032A177.5616 177.5616 0 0 0 0 177.2032v669.5936A178.0736 178.0736 0 0 0 177.2032 1024z" fill="#000000" p-id="9997"></path><path d="M192.9216 285.7472h435.968a30.0544 30.0544 0 0 0 0-60.1088H192.9216a30.0544 30.0544 0 1 0 0 60.1088z m214.016 207.8208a30.1056 30.1056 0 0 0-30.0544-30.0544H192.9216a30.0544 30.0544 0 1 0 0 60.1088h183.2448a30.2592 30.2592 0 0 0 30.72-30.0544z m-214.016 207.8208a30.0544 30.0544 0 0 0 0 60.1088h76.8a30.0544 30.0544 0 0 0 0-60.1088z m471.04 275.2512h-0.2048z" fill="#000000" p-id="9998"></path><path d="M1023.9488 843.6736a180.8896 180.8896 0 0 0-209.2032-177.8688 188.9792 188.9792 0 0 0-332.8-58.0608 185.856 185.856 0 0 0-36.5056 114.432 151.9104 151.9104 0 0 0 24.7296 301.568h393.5744a23.8592 23.8592 0 0 0 11.008-2.816A180.5824 180.5824 0 0 0 1024 843.6736z m-180.8896 132.2496H469.76a103.9872 103.9872 0 1 1 0-207.9744 25.6 25.6 0 0 0 25.0368-27.8528 140.6464 140.6464 0 0 1 274.0224-60.5696 180.1728 180.1728 0 0 0-106.5472 164.1472 24.0128 24.0128 0 0 0 48.0256 0 132.864 132.864 0 1 1 132.864 132.2496z" fill="#000000" p-id="9999"></path></svg>